<?xml version="1.0" encoding="utf-8"?>
<!-- Generator: Adobe Illustrator 17.0.0, SVG Export Plug-In . SVG Version: 6.00 Build 0)  -->
<!DOCTYPE svg PUBLIC "-//W3C//DTD SVG 1.1//EN" "http://www.w3.org/Graphics/SVG/1.1/DTD/svg11.dtd">
<svg version="1.1" id="Calque_1" xmlns="http://www.w3.org/2000/svg" xmlns:xlink="http://www.w3.org/1999/xlink" x="0px" y="0px"
	 width="50px" height="50px" viewBox="0 0 50 50" enable-background="new 0 0 50 50" xml:space="preserve">
<g>
	<defs>
		<rect id="SVGID_1_" width="50" height="50"/>
	</defs>
	<clipPath id="SVGID_2_">
		<use xlink:href="#SVGID_1_"  overflow="visible"/>
	</clipPath>
	<path clip-path="url(#SVGID_2_)" fill="#FFFFFF" d="M25,0C11.215,0,0,11.215,0,25s11.215,25,25,25c13.785,0,25-11.215,25-25
		S38.785,0,25,0 M25,46.721C13.023,46.721,3.279,36.977,3.279,25S13.023,3.279,25,3.279c11.978,0,21.721,9.744,21.721,21.721
		C46.721,36.977,36.977,46.721,25,46.721"/>
	<path clip-path="url(#SVGID_2_)" fill="#FFFFFF" d="M30.195,13.731c-0.64-0.64-1.679-0.64-2.318,0L17.767,23.841
		c-0.308,0.307-0.48,0.725-0.48,1.159c0,0.435,0.173,0.852,0.48,1.159l10.109,10.109c0.32,0.32,0.74,0.48,1.159,0.48
		c0.419,0,0.84-0.16,1.159-0.48c0.64-0.64,0.64-1.678,0-2.318l-8.95-8.95l8.95-8.95C30.835,15.41,30.835,14.371,30.195,13.731"/>
</g>
</svg>
