<?xml version="1.0" encoding="utf-8"?>
<!-- Generator: Adobe Illustrator 17.0.0, SVG Export Plug-In . SVG Version: 6.00 Build 0)  -->
<!DOCTYPE svg PUBLIC "-//W3C//DTD SVG 1.1//EN" "http://www.w3.org/Graphics/SVG/1.1/DTD/svg11.dtd">
<svg version="1.1" id="Calque_1" xmlns="http://www.w3.org/2000/svg" xmlns:xlink="http://www.w3.org/1999/xlink" x="0px" y="0px"
	 width="200px" height="133.213px" viewBox="0 31.787 200 133.213" enable-background="new 0 31.787 200 133.213"
	 xml:space="preserve">
<g opacity="0.1">
	<path fill="#DB5948" d="M146.919,61.704h-25.042V41.4c0-5.277-4.336-9.613-9.613-9.613H53.782c-5.277,0-9.613,4.336-9.613,9.613
		v35.194c0,5.277,4.336,9.613,9.613,9.613h5.69l7.169,9.613c0.401,0.677,1.215,0.953,2.03,0.953s1.491-0.401,2.03-0.953l7.169-9.613
		h1.077v20.304c0,5.277,4.336,9.613,9.613,9.613h34.38l7.169,9.613c0.401,0.677,1.215,0.953,2.03,0.953s1.491-0.401,2.03-0.953
		l7.169-9.613h5.69c5.277,0,9.613-4.336,9.613-9.613V71.318C156.658,66.028,152.334,61.704,146.919,61.704z M76.531,81.194
		c-0.815,0-1.491,0.401-2.03,0.953l-5.953,7.846l-5.953-7.846c-0.401-0.677-1.215-0.953-2.03-0.953h-7.044c-2.57,0-4.6-2.03-4.6-4.6
		V41.4c0-2.57,2.03-4.6,4.6-4.6h58.482c2.57,0,4.6,2.03,4.6,4.6v22.874v12.321c0,2.57-2.03,4.6-4.6,4.6H81.394L76.531,81.194
		L76.531,81.194z M151.657,106.512c0,2.57-2.03,4.6-4.6,4.6h-7.044c-0.815,0-1.491,0.401-2.03,0.953l-5.953,7.846l-5.953-7.846
		c-0.401-0.677-1.215-0.953-2.03-0.953h-35.47c-2.57,0-4.6-2.03-4.6-4.6V86.207h28.288c1.893,0,3.66-0.539,5.139-1.491h18.951
		c1.353,0,2.432-1.077,2.432-2.432c0-1.353-1.077-2.432-2.432-2.432h-14.89c0.401-0.953,0.539-2.03,0.539-3.246v-9.75h25.042
		c2.57,0,4.6,2.03,4.6,4.6v35.056H151.657z M138.66,96.222c0,1.353-1.077,2.432-2.432,2.432H99.404
		c-1.353,0-2.432-1.077-2.432-2.432c0-1.353,1.077-2.432,2.432-2.432h36.824C137.569,93.778,138.66,94.869,138.66,96.222z
		 M101.159,68.735H64.473c-1.353,0-2.432-1.077-2.432-2.432s1.077-2.432,2.432-2.432h36.686c1.353,0,2.432,1.077,2.432,2.432
		C103.729,67.658,102.513,68.735,101.159,68.735z M62.042,52.229c0-1.353,1.077-2.432,2.432-2.432h22.059
		c1.353,0,2.432,1.077,2.432,2.432c0,1.353-1.077,2.432-2.432,2.432h-22.06C63.12,54.66,62.042,53.583,62.042,52.229z"/>
</g>
<g>
	<path fill="#2B2C2C" d="M28.313,113.859c-0.106,0-0.214-0.012-0.322-0.04c-0.701-0.176-1.127-0.889-0.949-1.59
		c4.484-17.762,21.021-59.134,77.582-59.661c0.659,0.003,1.314,0.574,1.322,1.299c0.007,0.723-0.574,1.315-1.299,1.322
		c-54.736,0.51-70.729,40.508-75.066,57.683C29.432,113.464,28.899,113.859,28.313,113.859z"/>
</g>
<g>
	<path fill="#2B2C2C" d="M152.544,117.446h-7.716c-0.723,0-1.31-0.587-1.31-1.31s0.587-1.31,1.31-1.31h7.716
		c0.723,0,1.31,0.587,1.31,1.31S153.267,117.446,152.544,117.446z"/>
</g>
<g>
	<path fill="#2B2C2C" d="M140.733,117.446h-1.092c-0.723,0-1.31-0.587-1.31-1.31s0.587-1.31,1.31-1.31h1.092
		c0.723,0,1.31,0.587,1.31,1.31S141.456,117.446,140.733,117.446z"/>
</g>
<g>
	<path fill="#2B2C2C" d="M135.82,117.446h-1.092c-0.723,0-1.31-0.587-1.31-1.31s0.587-1.31,1.31-1.31h1.092
		c0.723,0,1.31,0.587,1.31,1.31S136.543,117.446,135.82,117.446z"/>
</g>
<g>
	<path fill="#2B2C2C" d="M143.19,124.434h-7.534c-0.723,0-1.31-0.587-1.31-1.31s0.587-1.31,1.31-1.31h7.534
		c0.723,0,1.31,0.587,1.31,1.31S143.913,124.434,143.19,124.434z"/>
</g>
<g>
	<path fill="#2B2C2C" d="M148.376,124.434h-1.092c-0.723,0-1.31-0.587-1.31-1.31s0.587-1.31,1.31-1.31h1.092
		c0.723,0,1.31,0.587,1.31,1.31S149.099,124.434,148.376,124.434z"/>
</g>
<g>
	<path fill="#2B2C2C" d="M68.688,99.977h-7.715c-0.723,0-1.31-0.587-1.31-1.31s0.587-1.31,1.31-1.31h7.715
		c0.723,0,1.31,0.587,1.31,1.31S69.411,99.977,68.688,99.977z"/>
</g>
<g>
	<path fill="#2B2C2C" d="M56.879,99.977h-1.092c-0.723,0-1.31-0.587-1.31-1.31s0.587-1.31,1.31-1.31h1.092
		c0.723,0,1.31,0.587,1.31,1.31C58.188,99.39,57.602,99.977,56.879,99.977z"/>
</g>
<g>
	<path fill="#2B2C2C" d="M51.966,99.977h-1.092c-0.723,0-1.31-0.587-1.31-1.31s0.587-1.31,1.31-1.31h1.092
		c0.723,0,1.31,0.587,1.31,1.31S52.689,99.977,51.966,99.977z"/>
</g>
<g>
	<path fill="#2B2C2C" d="M59.335,106.965h-7.534c-0.723,0-1.31-0.587-1.31-1.31s0.587-1.31,1.31-1.31h7.534
		c0.723,0,1.31,0.587,1.31,1.31S60.058,106.965,59.335,106.965z"/>
</g>
<g>
	<path fill="#2B2C2C" d="M64.521,106.965h-1.092c-0.723,0-1.31-0.587-1.31-1.31s0.587-1.31,1.31-1.31h1.092
		c0.723,0,1.31,0.587,1.31,1.31S65.244,106.965,64.521,106.965z"/>
</g>
<g>
	<circle fill="#FFFFFF" cx="100.138" cy="110.959" r="23.477"/>
	<g>
		<path fill="#2B2C2C" d="M100.007,135.745c-13.866,0-25.146-11.28-25.146-25.146s11.281-25.146,25.146-25.146
			s25.146,11.281,25.146,25.146C125.154,124.466,113.872,135.745,100.007,135.745z M100.007,88.075
			c-12.42,0-22.525,10.105-22.525,22.525c0,12.421,10.105,22.525,22.525,22.525s22.526-10.104,22.526-22.525
			C122.534,98.18,112.428,88.075,100.007,88.075z"/>
	</g>
	<g>
		<path fill="#2B2C2C" d="M100.007,93.523c-0.723,0-1.31-0.587-1.31-1.31V81.04c0-0.723,0.587-1.31,1.31-1.31s1.31,0.587,1.31,1.31
			v11.172C101.317,92.936,100.73,93.523,100.007,93.523z"/>
	</g>
	<g>
		<path fill="#2B2C2C" d="M100.007,141.333c-0.723,0-1.31-0.587-1.31-1.31v-11.172c0-0.723,0.587-1.31,1.31-1.31
			s1.31,0.587,1.31,1.31v11.172C101.317,140.746,100.73,141.333,100.007,141.333z"/>
	</g>
	<g>
		<path fill="#2B2C2C" d="M129.429,111.91h-11.172c-0.723,0-1.31-0.587-1.31-1.31s0.587-1.31,1.31-1.31h11.172
			c0.723,0,1.31,0.587,1.31,1.31C130.739,111.323,130.152,111.91,129.429,111.91z"/>
	</g>
	<g>
		<path fill="#2B2C2C" d="M81.758,111.91H70.586c-0.723,0-1.31-0.587-1.31-1.31s0.587-1.31,1.31-1.31h11.172
			c0.723,0,1.31,0.587,1.31,1.31C83.068,111.323,82.481,111.91,81.758,111.91z"/>
	</g>
	<path fill="#2B2C2C" d="M92.461,93.21c-2.487,0.966-4.734,2.544-6.495,4.565c-0.358,0.411-0.316,1.035,0.095,1.393
		c0.215,0.188,0.489,0.265,0.752,0.237c0.239-0.026,0.47-0.137,0.641-0.332c1.553-1.782,3.532-3.173,5.722-4.024
		c0.508-0.198,0.76-0.769,0.562-1.277C93.54,93.266,92.969,93.01,92.461,93.21z"/>
	<path fill="#2B2C2C" d="M84.388,101.873c-0.504-0.21-1.08,0.035-1.287,0.539c-0.318,0.776-0.579,1.583-0.774,2.398
		c-0.128,0.53,0.198,1.062,0.728,1.191c0.112,0.027,0.226,0.034,0.335,0.022c0.403-0.042,0.756-0.333,0.855-0.751
		c0.172-0.717,0.402-1.428,0.682-2.111C85.135,102.655,84.893,102.079,84.388,101.873z"/>
	<path fill="#2B2C2C" d="M110.155,120.717c-0.217-3.289-2.077-6.286-4.904-7.965c1.512-1.412,2.368-3.366,2.368-5.453
		c0-4.124-3.355-7.48-7.48-7.48s-7.481,3.355-7.481,7.48c0,2.088,0.855,4.04,2.368,5.453c-2.827,1.679-4.688,4.677-4.904,7.965
		l-0.031,0.466h2.153l0.032-0.404c0.223-2.925,2.103-5.519,4.809-6.658c1.946,0.875,4.163,0.875,6.11,0
		c2.705,1.14,4.586,3.734,4.809,6.658l0.032,0.404h2.153L110.155,120.717z M105.465,107.299c0,2.938-2.389,5.327-5.326,5.327
		c-2.937,0-5.326-2.389-5.326-5.327c0-2.936,2.389-5.326,5.326-5.326S105.465,104.363,105.465,107.299z"/>
</g>
<g>
	<g>
		<path fill="#2B2C2C" d="M21.676,133.863v-4.506c0-2.452,2.07-4.521,4.521-4.521s4.522,2.069,4.522,4.521v4.58l0.457-0.609
			c0.912-1.215,1.415-2.626,1.415-3.972c0-3.526-2.868-6.393-6.393-6.393s-6.392,2.868-6.392,6.393c0,1.477,0.52,2.931,1.426,3.986
			L21.676,133.863z"/>
		<path fill="#2B2C2C" d="M40.994,138.717c-0.584,0-1.128,0.142-1.624,0.422c-0.213-1.649-1.59-2.886-3.307-2.886
			c-0.706,0-1.402,0.213-1.993,0.605c-0.576-1.142-1.676-1.838-2.94-1.838c-0.574,0-1.109,0.136-1.596,0.405v-5.699
			c0-1.871-1.466-3.337-3.336-3.337s-3.335,1.467-3.335,3.337v10.412c-3.163-2.734-5.386-3.286-6.831-1.838
			c-1.82,1.82,0.087,4.666,2.727,8.605c1.23,1.835,2.622,3.914,3.889,6.249c3.262,5.814,7.755,7.035,10.949,7.035
			c5.919,0,10.735-4.817,10.735-10.735v-7.398C44.33,140.183,42.865,138.717,40.994,138.717z M29.534,142.926v-4.57
			c0-0.85,0.746-1.595,1.596-1.595s1.596,0.746,1.596,1.595v3.337h1.741v-2.104c0-0.85,0.746-1.595,1.596-1.595
			s1.596,0.746,1.596,1.595v3.337H39.4v-0.871c0-0.85,0.746-1.595,1.596-1.595c0.85,0,1.596,0.746,1.596,1.595v7.398
			c0,4.792-4.203,8.994-8.995,8.994c-4.98,0-7.547-3.054-9.398-6.038c-1.585-2.752-3.034-5.005-4.198-6.815
			c-2.136-3.32-3.425-5.326-2.748-6.071c0.179-0.179,0.403-0.266,0.687-0.266c0.846,0,2.613,0.793,6.225,4.577l0.437,0.458v-14.566
			c0-0.85,0.746-1.595,1.596-1.595s1.596,0.746,1.596,1.595v13.2L29.534,142.926L29.534,142.926z"/>
	</g>
</g>
</svg>
