<?xml version="1.0" encoding="utf-8"?>
<!-- Generator: Adobe Illustrator 17.0.0, SVG Export Plug-In . SVG Version: 6.00 Build 0)  -->
<!DOCTYPE svg PUBLIC "-//W3C//DTD SVG 1.1//EN" "http://www.w3.org/Graphics/SVG/1.1/DTD/svg11.dtd">
<svg version="1.1" id="Calque_1" xmlns="http://www.w3.org/2000/svg" xmlns:xlink="http://www.w3.org/1999/xlink" x="0px" y="0px"
	 width="50px" height="50px" viewBox="0 0 50 50" enable-background="new 0 0 50 50" xml:space="preserve">
<path id="border" fill="#E6E6E6" d="M0,25c0,13.785,11.215,25,25,25s25-11.215,25-25S38.785,0,25,0S0,11.215,0,25 M46.721,25
	c0,11.977-9.744,21.721-21.721,21.721S3.279,36.977,3.279,25C3.279,13.022,13.023,3.279,25,3.279S46.721,13.023,46.721,25"/>
<path id="chevron" fill="#E6E6E6" d="M13.731,19.805c-0.64,0.64-0.64,1.679,0,2.318l10.11,10.11c0.307,0.308,0.725,0.48,1.159,0.48
	c0.435,0,0.852-0.173,1.159-0.48l10.109-10.109c0.32-0.32,0.48-0.74,0.48-1.159s-0.16-0.84-0.48-1.159
	c-0.64-0.64-1.678-0.64-2.318,0L25,28.756l-8.95-8.95C15.41,19.165,14.371,19.165,13.731,19.805"/>
</svg>
