<?xml version="1.0" encoding="utf-8"?>
<!-- Generator: Adobe Illustrator 17.0.0, SVG Export Plug-In . SVG Version: 6.00 Build 0)  -->
<!DOCTYPE svg PUBLIC "-//W3C//DTD SVG 1.1//EN" "http://www.w3.org/Graphics/SVG/1.1/DTD/svg11.dtd">
<svg version="1.1" id="Calque_1" xmlns="http://www.w3.org/2000/svg" xmlns:xlink="http://www.w3.org/1999/xlink" x="0px" y="0px"
	 width="96.954px" height="96.824px" viewBox="0 0 96.954 96.824" enable-background="new 0 0 96.954 96.824" xml:space="preserve">
<g>
	<defs>
		<rect id="SVGID_1_" y="0" width="96.954" height="96.824"/>
	</defs>
	<clipPath id="SVGID_2_">
		<use xlink:href="#SVGID_1_"  overflow="visible"/>
	</clipPath>
	<path clip-path="url(#SVGID_2_)" fill="#FFFFFF" d="M48.477,0C21.747,0.001,0.001,21.717,0,48.412
		c0.001,26.695,21.747,48.412,48.477,48.412s48.476-21.717,48.477-48.412C96.953,21.717,75.207,0.001,48.477,0 M80.372,22.852
		c5.528,6.851,8.892,15.508,9.048,24.934c-1.84-0.372-9.634-1.83-18.947-1.83c-3.004,0-6.166,0.153-9.336,0.542
		c-0.267-0.648-0.537-1.3-0.816-1.954c-0.824-1.934-1.707-3.852-2.627-5.739C72.023,32.9,78.941,24.705,80.372,22.852 M48.477,7.576
		c10.328,0,19.77,3.839,26.982,10.161c-1.143,1.559-7.333,9.294-21.152,14.52c-6.395-11.697-13.4-21.376-15.066-23.625
		C42.211,7.943,45.301,7.576,48.477,7.576 M30.885,11.55c1.412,1.942,8.422,11.725,14.982,23.329
		c-17.606,4.626-33.242,4.93-37.014,4.93h-0.4C11.162,27.314,19.606,16.931,30.885,11.55 M7.522,48.475
		c0-0.336,0.008-0.673,0.018-1.01c0.245,0.004,0.604,0.008,1.074,0.008c5.08,0,22.722-0.423,40.901-5.819
		c1.103,2.16,2.155,4.35,3.129,6.538c-0.455,0.132-0.91,0.266-1.36,0.411c-20.467,6.612-31.721,24.112-33.451,26.971
		C11.421,68.35,7.522,58.861,7.522,48.475 M48.477,89.375c-9.397,0-18.06-3.182-24.979-8.515
		c1.169-2.294,9.659-17.584,32.092-25.392c0.016-0.005,0.032-0.011,0.047-0.017c5.621,14.646,8.004,26.937,8.661,30.744
		C59.428,88.242,54.082,89.375,48.477,89.375 M71.671,82.164c-0.549-3.15-2.755-14.67-7.85-28.719
		c2.858-0.442,5.639-0.617,8.245-0.617c8.559-0.001,15.255,1.873,16.811,2.346C87.027,66.335,80.639,75.986,71.671,82.164"/>
</g>
</svg>
