<?xml version="1.0" encoding="utf-8"?>
<!-- Generator: Adobe Illustrator 17.0.0, SVG Export Plug-In . SVG Version: 6.00 Build 0)  -->
<!DOCTYPE svg PUBLIC "-//W3C//DTD SVG 1.1//EN" "http://www.w3.org/Graphics/SVG/1.1/DTD/svg11.dtd">
<svg version="1.1" id="Calque_1" xmlns="http://www.w3.org/2000/svg" xmlns:xlink="http://www.w3.org/1999/xlink" x="0px" y="0px"
	 width="512px" height="384px" viewBox="0 0 512 384" enable-background="new 0 0 512 384" xml:space="preserve">
<g>
	<defs>
		<rect id="SVGID_1_" width="512" height="384"/>
	</defs>
	<clipPath id="SVGID_2_">
		<use xlink:href="#SVGID_1_"  overflow="visible"/>
	</clipPath>
	<path clip-path="url(#SVGID_2_)" fill="#FFFFFF" d="M448,0H64C28.656,0,0,28.656,0,64v256c0,35.344,28.656,64,64,64h384
		c35.344,0,64-28.656,64-64V64C512,28.656,483.344,0,448,0 M342.656,170.781L478.125,54.687c0.938,3,1.875,6,1.875,9.313v256
		c0,2.219-0.844,4.188-1.281,6.281L342.656,170.781z M448,32c2.125,0,4,0.813,6,1.219L256,202.938L58,33.219
		C60,32.813,61.875,32,64,32H448z M33.266,326.25C32.828,324.156,32,322.219,32,320V64c0-3.313,0.953-6.313,1.891-9.313
		L169.313,170.75L33.266,326.25z M64,352c-3.234,0-6.172-0.938-9.125-1.844l138.75-158.563l51.969,44.531
		C248.578,238.719,252.297,240,256,240s7.422-1.281,10.406-3.875l51.969-44.531l138.75,158.563C454.188,351.062,451.25,352,448,352
		H64z"/>
</g>
</svg>
