<?xml version="1.0" encoding="utf-8"?>
<!-- Generator: Adobe Illustrator 17.0.0, SVG Export Plug-In . SVG Version: 6.00 Build 0)  -->
<!DOCTYPE svg PUBLIC "-//W3C//DTD SVG 1.1//EN" "http://www.w3.org/Graphics/SVG/1.1/DTD/svg11.dtd">
<svg version="1.1" id="Calque_1" xmlns="http://www.w3.org/2000/svg" xmlns:xlink="http://www.w3.org/1999/xlink" x="0px" y="0px"
	 width="380px" height="380px" viewBox="0 0 380 380" enable-background="new 0 0 380 380" xml:space="preserve">
<g>
	<g>
		<path fill="#FFFFFF" d="M294.468,133.381v-0.798c0-2.97-1.348-6.465-3.769-8.885l-0.274-0.274c0,0-0.274,0-0.274-0.274
			c-0.549-0.549-1.074-0.798-1.622-1.348c-0.274,0-0.274-0.274-0.549-0.274c-0.549-0.274-1.348-0.549-1.897-0.798
			c-0.274,0-0.274-0.274-0.549-0.274c-0.799-0.274-1.622-0.549-2.421-0.549c-0.274,0-0.274,0-0.549,0
			c-0.799,0-1.897-0.274-2.97-0.274H103.6c-1.074,0-2.146,0-3.245,0.274c-0.274,0-0.549,0-0.798,0.274
			c-0.798,0.274-1.623,0.274-2.146,0.549c-0.274,0-0.274,0.274-0.549,0.274c-0.549,0.274-1.348,0.549-1.897,0.798l-0.274,0.274
			c-0.549,0.274-1.074,0.798-1.623,1.074c-0.274,0.274-0.549,0.549-0.798,0.798c-1.896,2.147-2.969,4.592-3.245,7.289
			c0,0.274,0,0.274,0,0.549v119.956c0,0.274,0,0.274,0,0.549c0.549,3.769,2.421,7.013,5.116,8.885
			c2.421,1.622,5.392,2.695,8.885,2.695h177.113c0,0,0,0,0.274,0l0,0c0.799,0,1.897,0,2.695-0.274c0.274,0,0.274,0,0.549,0
			c0.799-0.274,1.623-0.274,2.147-0.549h0.274c5.94-2.146,8.361-7.289,8.361-12.131v-0.798v-0.274v-0.274v-115.39
			c0-0.274,0-0.274,0-0.549C294.468,133.657,294.468,133.657,294.468,133.381z M277.22,129.613l-84.913,82.741l-19.418-18.869l0,0
			l-66.592-63.897H277.22V129.613z M99.033,248.496V136.352l62.798,60.377L99.033,248.496z M189.612,254.137h-81.694l61.202-50.144
			l19.668,19.144c0.798,0.798,1.623,1.074,2.421,1.348h0.274c0.274,0,0.274,0,0.549,0l0,0c0.274,0,0.549,0,0.549,0h0.274
			c0.798-0.274,1.897-0.549,2.421-1.348l18.595-18.071l61.451,49.071H189.612L189.612,254.137z M284.484,248.745l-63.072-50.943
			l63.072-61.451V248.745z"/>
		<path fill="#FFFFFF" d="M280.415,265.325H103.027c-3.52,0-6.782-0.989-9.696-2.941c-3.052-2.122-5.138-5.719-5.745-9.884
			l-0.015-0.21l0.008-121.203c0.307-3.021,1.518-5.747,3.601-8.103l1.028-1.03l0.209-0.105c0.202-0.103,0.395-0.256,0.593-0.403
			c0.24-0.178,0.505-0.375,0.801-0.547l0.315-0.316l0.242-0.109c0.251-0.114,0.55-0.233,0.857-0.355
			c0.347-0.138,0.705-0.277,0.989-0.419l0.107-0.054c0.155-0.121,0.377-0.254,0.667-0.325c0.404-0.166,0.821-0.242,1.226-0.317
			c0.203-0.037,0.417-0.074,0.632-0.131c0.49-0.352,1.001-0.413,1.331-0.423c1.207-0.277,2.334-0.277,3.425-0.277h175.991
			c0.675,0,1.323,0.088,1.894,0.165c0.394,0.054,0.762,0.109,1.077,0.109h0.549c0.998,0,1.957,0.308,2.748,0.578
			c0.351,0.064,0.607,0.221,0.776,0.355l0.047,0.022c0.216,0.098,0.474,0.2,0.738,0.306c0.344,0.137,0.695,0.277,0.998,0.417
			c0.206,0.051,0.375,0.135,0.51,0.221h0.2l0.426,0.426c0.221,0.221,0.437,0.377,0.652,0.536c0.271,0.202,0.539,0.405,0.814,0.661
			h0.005l0.143,0.143c0.003,0.003,0.005,0.005,0.005,0.005l0.55,0.55c2.588,2.59,4.196,6.389,4.196,9.914l-0.025,118.334
			c0,6.343-3.485,11.389-9.322,13.498l-0.24,0.086h-0.232c-0.363,0.132-0.733,0.2-1.094,0.266c-0.279,0.051-0.579,0.1-0.875,0.203
			l-0.232,0.08h-0.572C282.357,265.325,281.246,265.325,280.415,265.325z M90.479,252.182c0.509,3.329,2.143,6.167,4.492,7.8
			c2.406,1.612,5.123,2.435,8.056,2.435h177.388c0.659,0,1.655,0,2.225-0.195l0.228-0.079h0.567c0.38-0.112,0.746-0.179,1.048-0.235
			c0.233-0.043,0.554-0.103,0.651-0.151l0.306-0.151l0.38-0.014c4.494-1.723,7.17-5.696,7.17-10.676V131.909
			c-0.192-2.562-1.451-5.317-3.319-7.185l-0.029-0.029c-0.318-0.157-0.577-0.411-0.743-0.724c-0.143-0.121-0.287-0.226-0.427-0.331
			c-0.23-0.17-0.459-0.344-0.691-0.549c-0.138-0.064-0.251-0.139-0.342-0.209l-0.109-0.056c-0.281-0.141-0.636-0.28-0.98-0.416
			c-0.236-0.094-0.468-0.186-0.678-0.277c-0.304-0.071-0.533-0.21-0.687-0.334c-0.625-0.213-1.318-0.443-1.87-0.443h-0.549
			c-0.469,0-0.952-0.066-1.466-0.135c-0.506-0.068-1.027-0.139-1.505-0.139H103.6c-1.011,0-1.967,0-2.893,0.232l-0.679,0.24
			c-0.47,0.161-0.926,0.245-1.293,0.311c-0.234,0.043-0.555,0.103-0.652,0.151l-0.127,0.062c-0.153,0.119-0.369,0.251-0.654,0.323
			c-0.307,0.142-0.663,0.284-1.008,0.422c-0.171,0.068-0.342,0.135-0.498,0.2l-0.246,0.246l-0.212,0.107
			c-0.203,0.1-0.396,0.256-0.595,0.403c-0.238,0.178-0.502,0.375-0.796,0.545l-0.651,0.651c-1.593,1.809-2.562,3.962-2.818,6.336
			V252.182z M279.474,255.591H103.849l65.353-53.546l20.599,20.05c0.512,0.512,1.024,0.719,1.651,0.936l1.25-0.027
			c0.496-0.164,1.176-0.387,1.357-0.663l0.203-0.246l19.514-18.963L279.474,255.591z M111.988,252.683h159.185l-57.205-45.681
			l-17.578,17.082c-0.748,1.016-1.916,1.399-2.779,1.683l-0.512,0.171h-2.132l-0.229-0.079c-0.891-0.307-1.953-0.671-2.978-1.695
			l-18.723-18.224L111.988,252.683z M285.938,251.789l-66.716-53.885l66.716-64.998V251.789z M223.599,197.7l59.431,48.003V139.798
			L223.599,197.7z M97.579,251.579V132.938l66.437,63.876L97.579,251.579z M100.487,139.768v105.645l59.16-48.767L100.487,139.768z
			 M192.308,214.382l-20.433-19.856l-69.195-66.392h175.992v2.067l-0.439,0.453L192.308,214.382z M109.912,131.042l63.983,61.393
			l18.41,17.889l81.365-79.283H109.912V131.042z"/>
	</g>
</g>
<g>
	<path fill="#FFFFFF" d="M191.746,381.5C87.118,381.5,1.995,296.378,1.995,191.749c0-104.628,85.122-189.75,189.751-189.75
		s189.75,85.122,189.75,189.75S296.374,381.5,191.746,381.5z M191.746,15.085c-97.413,0-176.665,79.251-176.665,176.663
		s79.252,176.665,176.665,176.665s176.665-79.252,176.665-176.665S289.159,15.085,191.746,15.085z"/>
</g>
</svg>
