<?xml version="1.0" encoding="utf-8"?>
<!-- Generator: Adobe Illustrator 17.0.0, SVG Export Plug-In . SVG Version: 6.00 Build 0)  -->
<!DOCTYPE svg PUBLIC "-//W3C//DTD SVG 1.1//EN" "http://www.w3.org/Graphics/SVG/1.1/DTD/svg11.dtd">
<svg version="1.1" id="Calque_1" xmlns="http://www.w3.org/2000/svg" xmlns:xlink="http://www.w3.org/1999/xlink" x="0px" y="0px"
	 width="463.1px" height="595.277px" viewBox="0 0 463.1 595.277" enable-background="new 0 0 463.1 595.277" xml:space="preserve">
<g>
	<defs>
		<rect id="SVGID_1_" width="463.1" height="595.277"/>
	</defs>
	<clipPath id="SVGID_2_">
		<use xlink:href="#SVGID_1_"  overflow="visible"/>
	</clipPath>
	<path clip-path="url(#SVGID_2_)" fill="#FFFFFF" d="M190.363,393.711c-15.632,81.951-34.722,160.522-91.273,201.566
		c-17.454-123.871,25.638-216.894,45.645-315.656c-34.109-57.42,4.102-172.999,76.058-144.515
		c88.536,35.032-76.677,213.495,34.229,235.794c115.798,23.263,163.075-200.917,91.267-273.826
		c-103.744-105.268-302-2.399-277.618,148.319c5.929,36.853,43.997,48.026,15.209,98.88C17.483,329.552-2.339,277.186,0.215,207.36
		C4.322,93.086,102.899,13.069,201.774,2.003c125.044-14.001,242.402,45.901,258.605,163.528
		c18.251,132.764-56.432,276.558-190.148,266.212C233.991,428.927,218.769,410.974,190.363,393.711"/>
</g>
</svg>
