<?xml version="1.0" encoding="utf-8"?>
<!-- Generator: Adobe Illustrator 17.0.0, SVG Export Plug-In . SVG Version: 6.00 Build 0)  -->
<!DOCTYPE svg PUBLIC "-//W3C//DTD SVG 1.1//EN" "http://www.w3.org/Graphics/SVG/1.1/DTD/svg11.dtd">
<svg version="1.1" id="Calque_1" xmlns="http://www.w3.org/2000/svg" xmlns:xlink="http://www.w3.org/1999/xlink" x="0px" y="0px"
	 width="200.013px" height="130px" viewBox="0 35 200.013 130" enable-background="new 0 35 200.013 130" xml:space="preserve">
<g opacity="0.1">
	<path fill="#DB5948" d="M158.37,99.375h-6.262l5.423-3.131c1.621-0.936,2.782-2.452,3.269-4.268s0.24-3.71-0.696-5.331
		L149.26,67.863c-0.936-1.62-2.452-2.782-4.268-3.269c-1.818-0.488-3.711-0.24-5.331,0.696l-5.423,3.131l3.131-5.423
		c0.936-1.621,1.184-3.514,0.696-5.331c-0.487-1.817-1.647-3.332-3.269-4.268l-18.781-10.843c-3.356-1.938-7.662-0.783-9.6,2.572
		l-0.474,0.822c-0.648,1.121-0.263,2.553,0.857,3.2c1.121,0.647,2.553,0.263,3.2-0.857l0.474-0.822
		c0.646-1.118,2.08-1.504,3.2-0.858l18.781,10.843c0.537,0.311,0.923,0.817,1.086,1.424c0.163,0.608,0.082,1.239-0.228,1.776
		l-25.998,45.03c-0.013,0.022-0.026,0.044-0.039,0.066l-1.334,2.309c-0.206,0.356-0.313,0.76-0.313,1.171v0.966
		c0,0.836,0.446,1.61,1.171,2.028c0.362,0.209,0.766,0.313,1.171,0.313s0.809-0.105,1.171-0.313l2.446-1.412
		c0.538-0.311,0.931-0.822,1.091-1.423c0.161-0.6,0.076-1.24-0.234-1.778l-0.418-0.724l3.271-5.668l2.054,3.557
		c0.434,0.751,1.221,1.171,2.031,1.171c0.397,0,0.8-0.102,1.169-0.314l8.964-5.176c0.538-0.311,0.931-0.822,1.091-1.423
		c0.161-0.6,0.076-1.24-0.234-1.778l-5.177-8.964c-0.311-0.538-0.822-0.931-1.423-1.091c-0.115-0.031-0.231-0.049-0.349-0.063
		l6.125-10.608l12.451-7.189c0.537-0.31,1.168-0.392,1.776-0.228c0.608,0.163,1.114,0.549,1.425,1.086l10.843,18.781
		c0.31,0.537,0.392,1.168,0.228,1.776c-0.163,0.608-0.549,1.114-1.086,1.425l-45.028,25.998c-0.024,0.013-0.047,0.027-0.07,0.04
		l-3.292,1.901c-0.725,0.419-1.171,1.192-1.171,2.028v0.269c0,1.293,1.049,2.343,2.343,2.343h3.324c1.293,0,2.343-1.049,2.343-2.343
		v-0.834l5.668-3.271v4.107c0,1.293,1.049,2.343,2.343,2.343h10.352c1.293,0,2.343-1.049,2.343-2.343v-10.35
		c0-0.774-0.377-1.458-0.956-1.885l10.608-6.125h14.376c1.291,0,2.343,1.051,2.343,2.343v21.686c0,1.291-1.051,2.343-2.343,2.343
		h-51.381c-1.293,0-2.343,1.049-2.343,2.343c0,1.293,1.049,2.343,2.343,2.343h51.381c3.874,0,7.027-3.153,7.027-7.027v-21.686
		C165.397,102.528,162.245,99.375,158.37,99.375z M122.312,92.67l2.834,4.908l-4.908,2.834l-2.234-3.871l1.198-2.074L122.312,92.67z
		 M129.655,114.412v5.668h-5.667v-4.47l2.074-1.197L129.655,114.412L129.655,114.412z"/>
	<path fill="#DB5948" d="M152.703,124.763c1.293,0,2.343-1.049,2.343-2.343v-10.35c0-1.293-1.049-2.343-2.343-2.343H142.35
		c-1.293,0-2.343,1.049-2.343,2.343v10.352c0,1.293,1.049,2.343,2.343,2.343L152.703,124.763L152.703,124.763z M144.693,114.412
		h5.668v5.668h-5.668V114.412z"/>
	<path fill="#DB5948" d="M138.482,95.288l8.964-5.176c0.538-0.311,0.931-0.822,1.091-1.423c0.161-0.6,0.076-1.24-0.234-1.778
		l-5.177-8.964c-0.647-1.12-2.079-1.505-3.2-0.857l-8.964,5.177c-0.538,0.311-0.931,0.822-1.091,1.423
		c-0.161,0.6-0.076,1.24,0.234,1.778l5.177,8.964c0.434,0.751,1.221,1.171,2.031,1.171C137.71,95.602,138.113,95.502,138.482,95.288
		z M135.335,85.152l4.908-2.834l2.834,4.908l-4.908,2.834L135.335,85.152z"/>
	<path fill="#DB5948" d="M105.94,87.26c-0.647,1.121-0.262,2.553,0.859,3.2l0.043,0.025c0.368,0.213,0.771,0.313,1.168,0.313
		c0.81,0,1.597-0.42,2.031-1.171l5.177-8.964c0.311-0.538,0.395-1.178,0.234-1.778c-0.161-0.6-0.553-1.112-1.091-1.423l-5.219-3.013
		c-1.121-0.647-2.553-0.263-3.2,0.857c-0.648,1.121-0.263,2.553,0.857,3.2l3.191,1.841l-3.764,6.519
		C106.12,86.985,106.023,87.116,105.94,87.26z"/>
	<path fill="#DB5948" d="M108.229,67.377l8.964,5.177c0.368,0.213,0.772,0.314,1.169,0.314c0.81,0,1.597-0.42,2.031-1.171
		l5.177-8.964c0.311-0.538,0.395-1.178,0.234-1.778c-0.161-0.6-0.553-1.112-1.091-1.423l-8.965-5.177
		c-1.121-0.648-2.553-0.263-3.2,0.857l-5.177,8.964c-0.311,0.538-0.395,1.178-0.234,1.778
		C107.298,66.556,107.691,67.067,108.229,67.377z M115.433,59.583l4.908,2.834l-2.834,4.908l-4.908-2.834L115.433,59.583z"/>
	<path fill="#DB5948" d="M96.258,37.263H74.572c-3.874,0-7.027,3.153-7.027,7.027v83.798c0,3.874,3.153,7.027,7.027,7.027h21.686
		c3.874,0,7.027-3.153,7.027-7.027V44.29C103.285,40.415,100.133,37.263,96.258,37.263z M98.599,128.088
		c0,1.291-1.051,2.343-2.343,2.343H74.571c-1.291,0-2.343-1.051-2.343-2.343V44.29c0-1.291,1.051-2.343,2.343-2.343h21.686
		c1.291,0,2.343,1.051,2.343,2.343L98.599,128.088L98.599,128.088z"/>
	<path fill="#DB5948" d="M85.414,112.56c-2.583,0-4.685,2.102-4.685,4.685s2.102,4.685,4.685,4.685s4.685-2.102,4.685-4.685
		S87.997,112.56,85.414,112.56z"/>
</g>
<g>
	<g>
		<path fill="#2B2C2C" d="M15.007,139.013l5.151,1.486l-4.496,5.742l4.77,3.527l4.43-5.652l2.707,4.198l5.683-18.869h3.029v-0.572
			c4.499,2.318,7.455,6.121,8.791,11.348c0.642,2.511,0.765,4.863,0.739,6.537h-1.926v5.213h5.213v-5.213h-1.58
			c0.04-4.267-0.868-12.538-7.746-17.712l7.21,1.567c0.211,0.852,0.976,1.486,1.893,1.486c1.08,0,1.955-0.876,1.955-1.955
			s-0.876-1.955-1.955-1.955c-0.62,0-1.165,0.294-1.524,0.743l-11.069-2.406v-2.292H31.07v1.159l-10.701-2.326
			c-0.211-0.852-0.976-1.486-1.893-1.486c-1.08,0-1.955,0.876-1.955,1.955c0,1.08,0.876,1.955,1.955,1.955
			c0.62,0,1.165-0.294,1.524-0.743l11.069,2.406v1.099L15.007,139.013z M45.608,148.479h0.119h1.651v0.753v1.016h-1.77V148.479
			L45.608,148.479z M34.56,126.15v0.102v1.472h-0.79l0.479-1.589l0.004-0.016l-0.017,0.012l-0.418,0.279l-1.029,0.689v-1.145h0.868
			h0.901L34.56,126.15L34.56,126.15z M23.087,139.55l-4.047-1.166l12.18-8.161l-4.224,14.025l-1.998-3.097l-4.888,6.237
			l-1.999-1.479L23.087,139.55z"/>
	</g>
</g>
<g>
	<path fill="#2B2C2C" d="M36.526,111.491c-0.096,0-0.194-0.012-0.291-0.037c-0.636-0.16-1.021-0.806-0.861-1.442
		c4.064-16.097,19.049-53.589,70.307-54.067c0.614,0.003,1.192,0.52,1.198,1.177c0.006,0.656-0.52,1.192-1.177,1.198
		C56.1,58.783,41.607,95.03,37.677,110.594C37.54,111.133,37.057,111.491,36.526,111.491z"/>
</g>
<g>
	<path fill="#2B2C2C" d="M166.521,114.742h-6.992c-0.656,0-1.187-0.532-1.187-1.187s0.532-1.187,1.187-1.187h6.992
		c0.656,0,1.187,0.532,1.187,1.187S167.176,114.742,166.521,114.742z"/>
</g>
<g>
	<path fill="#2B2C2C" d="M155.819,114.742h-0.989c-0.656,0-1.187-0.532-1.187-1.187s0.532-1.187,1.187-1.187h0.989
		c0.656,0,1.187,0.532,1.187,1.187S156.474,114.742,155.819,114.742z"/>
</g>
<g>
	<path fill="#2B2C2C" d="M151.366,114.742h-0.989c-0.656,0-1.187-0.532-1.187-1.187s0.532-1.187,1.187-1.187h0.989
		c0.656,0,1.187,0.532,1.187,1.187S152.022,114.742,151.366,114.742z"/>
</g>
<g>
	<path fill="#2B2C2C" d="M158.045,121.075h-6.828c-0.656,0-1.187-0.532-1.187-1.187c0-0.656,0.532-1.187,1.187-1.187h6.828
		c0.656,0,1.187,0.532,1.187,1.187C159.233,120.542,158.701,121.075,158.045,121.075z"/>
</g>
<g>
	<path fill="#2B2C2C" d="M162.745,121.075h-0.989c-0.656,0-1.187-0.532-1.187-1.187c0-0.656,0.532-1.187,1.187-1.187h0.989
		c0.656,0,1.187,0.532,1.187,1.187C163.932,120.542,163.401,121.075,162.745,121.075z"/>
</g>
<g>
	<path fill="#2B2C2C" d="M71.536,98.91h-6.992c-0.656,0-1.187-0.532-1.187-1.187c0-0.656,0.532-1.187,1.187-1.187h6.992
		c0.656,0,1.187,0.532,1.187,1.187C72.723,98.379,72.191,98.91,71.536,98.91z"/>
</g>
<g>
	<path fill="#2B2C2C" d="M60.833,98.91h-0.989c-0.656,0-1.187-0.532-1.187-1.187c0-0.656,0.532-1.187,1.187-1.187h0.989
		c0.656,0,1.187,0.532,1.187,1.187S61.488,98.91,60.833,98.91z"/>
</g>
<g>
	<path fill="#2B2C2C" d="M56.38,98.91h-0.989c-0.656,0-1.187-0.532-1.187-1.187c0-0.656,0.532-1.187,1.187-1.187h0.989
		c0.656,0,1.187,0.532,1.187,1.187S57.037,98.91,56.38,98.91z"/>
</g>
<g>
	<path fill="#2B2C2C" d="M63.06,105.243h-6.828c-0.656,0-1.187-0.532-1.187-1.187c0-0.656,0.532-1.187,1.187-1.187h6.828
		c0.656,0,1.187,0.532,1.187,1.187S63.715,105.243,63.06,105.243z"/>
</g>
<g>
	<path fill="#2B2C2C" d="M67.759,105.243H66.77c-0.656,0-1.187-0.532-1.187-1.187c0-0.656,0.532-1.187,1.187-1.187h0.989
		c0.656,0,1.187,0.532,1.187,1.187C68.947,104.711,68.415,105.243,67.759,105.243z"/>
</g>
<g>
	<polygon fill="#FFFFFF" points="80.757,141.258 80.757,87.433 101.36,92.71 121.183,87.433 142.513,92.834 141.916,148.944 
		121.1,140.404 101.365,147.591 	"/>
	<g>
		<path fill="#2B2C2C" d="M140.884,91.71l-19.887-5.655c-0.007-0.002-0.014-0.003-0.022-0.004c-0.047-0.013-0.096-0.023-0.145-0.031
			c-0.015-0.003-0.03-0.004-0.044-0.007C120.73,86.005,120.671,86,120.612,86c0,0-0.003,0-0.004,0c-0.059,0-0.117,0.005-0.175,0.013
			c-0.015,0.002-0.03,0.004-0.044,0.007c-0.049,0.008-0.098,0.018-0.145,0.031c-0.007,0.002-0.014,0.003-0.022,0.004l-19.5,5.545
			l-19.5-5.545c-0.427-0.12-0.886-0.036-1.239,0.232c-0.353,0.268-0.561,0.684-0.561,1.128v54.005c0,0.631,0.419,1.187,1.028,1.36
			l19.886,5.655c0.007,0.002,0.014,0.003,0.022,0.004c0.048,0.013,0.096,0.023,0.146,0.031c0.014,0.003,0.029,0.005,0.042,0.006
			c0.057,0.007,0.118,0.013,0.177,0.013c0.06,0,0.119-0.005,0.177-0.013c0.014-0.002,0.029-0.004,0.042-0.006
			c0.049-0.008,0.098-0.018,0.146-0.031c0.007-0.002,0.014-0.003,0.022-0.004l19.501-5.545l19.501,5.545
			c0.127,0.037,0.258,0.054,0.386,0.054c0.304,0,0.604-0.098,0.852-0.286c0.353-0.268,0.561-0.684,0.561-1.128V93.07
			C141.911,92.439,141.492,91.883,140.884,91.71z M101.986,93.727l17.362-4.937v51.971l-17.362,4.937V93.727z M81.747,88.791
			l17.361,4.937v51.971l-17.361-4.937V88.791z M139.587,145.699l-17.362-4.937V88.791l17.362,4.937V145.699z"/>
		<g>
			<path fill="#2B2C2C" d="M94.737,123.144l-8.055-2.291c-0.706-0.2-1.359,0.076-1.559,0.782c-0.2,0.705,0.208,1.308,0.914,1.509
				l8.055,2.291c0.121,0.035,0.243,0.05,0.364,0.05c0.578,0,1.11-0.249,1.277-0.833C95.933,123.947,95.443,123.345,94.737,123.144z"
				/>
		</g>
		<g>
			<path fill="#2B2C2C" d="M94.737,130.344l-8.055-2.291c-0.706-0.2-1.359,0.076-1.559,0.782c-0.2,0.705,0.208,1.308,0.914,1.509
				l8.055,2.291c0.121,0.035,0.243,0.05,0.364,0.05c0.578,0,1.11-0.249,1.277-0.833C95.933,131.147,95.443,130.545,94.737,130.344z"
				/>
		</g>
		<g>
			<path fill="#2B2C2C" d="M94.737,137.538l-8.055-2.291c-0.706-0.2-1.359,0.076-1.559,0.782c-0.2,0.705,0.208,1.308,0.914,1.509
				l8.055,2.291c0.121,0.035,0.243,0.05,0.364,0.05c0.578,0,1.11-0.249,1.277-0.833C95.933,138.342,95.443,137.739,94.737,137.538z"
				/>
		</g>
		<g>
			<path fill="#2B2C2C" d="M94.753,97.691l-7.935-2.256c-0.394-0.112-0.819-0.033-1.146,0.214c-0.328,0.247-0.519,0.633-0.519,1.044
				v17.265c0,0.585,0.388,1.099,0.95,1.258l7.935,2.256c0.118,0.034,0.238,0.049,0.357,0.049c0.281,0,0.559-0.091,0.789-0.265
				c0.328-0.247,0.519-0.633,0.519-1.044V98.949C95.703,98.365,95.315,97.852,94.753,97.691z M93.353,115.286l-5.85-1.664v-16
				l5.85,1.664V115.286z"/>
		</g>
		<g>
			<path fill="#2B2C2C" d="M126.582,136.799l7.936,2.256c0.118,0.034,0.238,0.049,0.357,0.049c0.281,0,0.559-0.091,0.789-0.265
				c0.328-0.247,0.519-0.633,0.519-1.044v-17.264c0-0.585-0.388-1.099-0.95-1.258l-7.936-2.256
				c-0.394-0.112-0.819-0.033-1.146,0.214c-0.327,0.247-0.519,0.633-0.519,1.044v17.265
				C125.631,136.125,126.019,136.639,126.582,136.799z M127.981,119.204l5.851,1.664v16l-5.851-1.664V119.204L127.981,119.204z"/>
		</g>
		<g>
			<path fill="#2B2C2C" d="M106.354,123.148l8.055-2.291c0.706-0.2,1.359,0.076,1.559,0.782c0.2,0.705-0.208,1.308-0.914,1.509
				L107,125.439c-0.121,0.035-0.243,0.05-0.364,0.05c-0.578,0-1.11-0.249-1.277-0.833
				C105.158,123.951,105.649,123.348,106.354,123.148z"/>
		</g>
		<g>
			<path fill="#2B2C2C" d="M106.354,115.956l8.055-2.291c0.706-0.2,1.359,0.076,1.559,0.782c0.2,0.705-0.208,1.308-0.914,1.509
				L107,118.248c-0.121,0.035-0.243,0.05-0.364,0.05c-0.578,0-1.11-0.249-1.277-0.833
				C105.158,116.759,105.649,116.158,106.354,115.956z"/>
		</g>
		<g>
			<path fill="#2B2C2C" d="M106.354,96.964l8.055-2.291c0.706-0.2,1.359,0.076,1.559,0.782c0.2,0.705-0.208,1.308-0.914,1.509
				L107,99.255c-0.121,0.035-0.243,0.05-0.364,0.05c-0.578,0-1.11-0.249-1.277-0.833C105.158,97.768,105.649,97.164,106.354,96.964z
				"/>
		</g>
		<g>
			<path fill="#2B2C2C" d="M106.354,130.348l8.055-2.291c0.706-0.2,1.359,0.076,1.559,0.782c0.2,0.705-0.208,1.308-0.914,1.509
				L107,132.639c-0.121,0.035-0.243,0.05-0.364,0.05c-0.578,0-1.11-0.249-1.277-0.833
				C105.158,131.151,105.649,130.548,106.354,130.348z"/>
		</g>
		<g>
			<path fill="#2B2C2C" d="M106.354,137.542l8.055-2.291c0.706-0.2,1.359,0.076,1.559,0.782c0.2,0.705-0.208,1.308-0.914,1.509
				L107,139.834c-0.121,0.035-0.243,0.05-0.364,0.05c-0.578,0-1.11-0.249-1.277-0.833
				C105.158,138.345,105.649,137.742,106.354,137.542z"/>
		</g>
		<g>
			<path fill="#2B2C2C" d="M135.295,96.961l-8.055-2.291c-0.706-0.2-1.359,0.076-1.559,0.782c-0.2,0.705,0.208,1.308,0.914,1.509
				l8.055,2.291c0.121,0.035,0.243,0.05,0.364,0.05c0.578,0,1.11-0.249,1.277-0.833C136.492,97.764,136.001,97.161,135.295,96.961z"
				/>
		</g>
		<g>
			<path fill="#2B2C2C" d="M135.295,104.162l-8.055-2.291c-0.706-0.2-1.359,0.076-1.559,0.782c-0.2,0.705,0.208,1.308,0.914,1.509
				l8.055,2.291c0.121,0.035,0.243,0.05,0.364,0.05c0.578,0,1.11-0.249,1.277-0.833
				C136.492,104.965,136.001,104.362,135.295,104.162z"/>
		</g>
		<g>
			<path fill="#2B2C2C" d="M135.295,111.356l-8.055-2.291c-0.706-0.2-1.359,0.076-1.559,0.782c-0.2,0.705,0.208,1.308,0.914,1.509
				l8.055,2.291c0.121,0.035,0.243,0.05,0.364,0.05c0.578,0,1.11-0.249,1.277-0.833
				C136.492,112.159,136.001,111.556,135.295,111.356z"/>
		</g>
	</g>
</g>
</svg>
