<?xml version="1.0" encoding="utf-8"?>
<!-- Generator: Adobe Illustrator 17.0.0, SVG Export Plug-In . SVG Version: 6.00 Build 0)  -->
<!DOCTYPE svg PUBLIC "-//W3C//DTD SVG 1.1//EN" "http://www.w3.org/Graphics/SVG/1.1/DTD/svg11.dtd">
<svg version="1.1" id="Calque_1" xmlns="http://www.w3.org/2000/svg" xmlns:xlink="http://www.w3.org/1999/xlink" x="0px" y="0px"
	 width="595.279px" height="483.538px" viewBox="0 0 595.279 483.538" enable-background="new 0 0 595.279 483.538"
	 xml:space="preserve">
<g>
	<defs>
		<rect id="SVGID_1_" width="595.279" height="483.538"/>
	</defs>
	<clipPath id="SVGID_2_">
		<use xlink:href="#SVGID_1_"  overflow="visible"/>
	</clipPath>
	<path clip-path="url(#SVGID_2_)" fill="#FFFFFF" d="M595.279,57.21c-21.91,9.708-45.418,16.292-70.119,19.232
		c25.221-15.103,44.527-39.058,53.677-67.515c-23.658,13.986-49.771,24.142-77.596,29.647C478.96,14.805,447.267,0,412.115,0
		c-67.44,0-122.121,54.681-122.121,122.084c0,9.559,1.078,18.896,3.162,27.824C191.68,144.811,101.698,96.194,41.475,22.318
		C30.948,40.322,24.959,61.301,24.959,83.695c0,42.369,21.575,79.753,54.31,101.625c-20.013-0.67-38.836-6.175-55.314-15.326v1.525
		c0,59.145,42.108,108.507,97.942,119.741c-10.23,2.753-21.017,4.278-32.176,4.278c-7.886,0-15.511-0.781-22.988-2.269
		c15.548,48.543,60.633,83.844,114.049,84.811c-41.773,32.735-94.446,52.19-151.656,52.19c-9.857,0-19.567-0.596-29.126-1.674
		c54.049,34.706,118.216,54.941,187.18,54.941c224.639,0,347.43-186.064,347.43-347.429l-0.409-15.809
		C558.193,103.188,578.949,81.688,595.279,57.21"/>
</g>
</svg>
