<?xml version="1.0" encoding="utf-8"?>
<!-- Generator: Adobe Illustrator 17.0.0, SVG Export Plug-In . SVG Version: 6.00 Build 0)  -->
<!DOCTYPE svg PUBLIC "-//W3C//DTD SVG 1.1//EN" "http://www.w3.org/Graphics/SVG/1.1/DTD/svg11.dtd">
<svg version="1.1" id="Calque_1" xmlns="http://www.w3.org/2000/svg" xmlns:xlink="http://www.w3.org/1999/xlink" x="0px" y="0px"
	 width="200px" height="130px" viewBox="0 38.589 200 130" enable-background="new 0 38.589 200 130" xml:space="preserve">
<g opacity="0.1">
	<path fill="#DB5948" d="M154.936,90.396H94.147c-0.912,0-1.652-0.74-1.652-1.652s0.74-1.652,1.652-1.652h60.789
		c0.912,0,1.651,0.74,1.651,1.652S155.847,90.396,154.936,90.396z"/>
</g>
<g opacity="0.1">
	<path fill="#DB5948" d="M85.118,90.508H58.579c-0.912,0-1.652-0.74-1.652-1.652s0.74-1.652,1.652-1.652h26.539
		c0.912,0,1.652,0.74,1.652,1.652S86.03,90.508,85.118,90.508z"/>
</g>
<g opacity="0.1">
	<path fill="#DB5948" d="M135.238,99.32H94.147c-0.912,0-1.652-0.74-1.652-1.652s0.74-1.652,1.652-1.652h41.092
		c0.912,0,1.651,0.74,1.651,1.652C136.889,98.581,136.15,99.32,135.238,99.32z"/>
</g>
<g opacity="0.1">
	<path fill="#DB5948" d="M85.118,99.431H58.579c-0.912,0-1.652-0.74-1.652-1.652s0.74-1.652,1.652-1.652h26.539
		c0.912,0,1.652,0.74,1.652,1.652C86.769,98.691,86.03,99.431,85.118,99.431z"/>
</g>
<path opacity="0.1" fill="#DB5948" enable-background="new    " d="M159.395,38.177H51.931c-4.447,0-8.065,3.618-8.065,8.065v69.751
	c0,4.447,3.618,8.065,8.065,8.065h50.432v14.267c0,0.058-21.157-0.14-21.157-0.14c-1.541,0-2.789,1.763-2.789,3.303
	s1.249,3.303,2.789,3.303H130.4c1.541,0,2.789-1.763,2.789-3.303s-1.249-3.303-2.789-3.303c0,0-21.432,0.199-21.432,0.14v-14.267
	h50.425c4.447,0,8.065-3.618,8.065-8.065v-69.75C167.46,41.795,163.842,38.177,159.395,38.177z M162.022,115.159
	c0,2.357-0.696,3.523-3.027,3.523l-107.106-0.044c-1.676,0-2.679-1.148-2.679-3.452l0.033-68.894c0-1.485,1.575-2.856,3.059-2.856
	l106.757,0.079c2.06,0,3.024,1.284,3.024,3.047L162.022,115.159z"/>
<g>
	<rect x="85.465" y="86.85" fill="#FFFFFF" width="33.903" height="61.38"/>
	<g>
		<g>
			<g>
				<path fill="#2B2C2C" d="M116.315,85.337h-28.01c-1.859,0-3.37,1.456-3.37,3.246v58.275c0,1.787,1.511,3.244,3.37,3.244h28.01
					c1.86,0,3.37-1.456,3.37-3.244V88.583C119.685,86.793,118.174,85.337,116.315,85.337z M87.238,141.956h30.146v4.901
					c0,0.52-0.48,0.942-1.069,0.942h-28.01c-0.588,0-1.066-0.422-1.066-0.942C87.238,146.857,87.238,141.956,87.238,141.956z
					 M117.383,94.973v44.679H87.238V94.973H117.383z M88.305,87.641h28.01c0.588,0,1.069,0.422,1.069,0.942v4.086H87.238v-4.085
					C87.238,88.063,87.716,87.641,88.305,87.641z"/>
			</g>
			<g>
				<path fill="#2B2C2C" d="M102.309,146.704c1.04,0,1.885-0.845,1.885-1.885c0-1.037-0.845-1.883-1.885-1.883
					s-1.885,0.846-1.885,1.883C100.424,145.861,101.27,146.704,102.309,146.704z"/>
			</g>
		</g>
	</g>
	<g>
		<path fill="#2B2C2C" d="M98.435,107.365h-5.686c-1.185,0-2.15-0.966-2.15-2.152v-5.051c0-1.185,0.964-2.152,2.15-2.152h5.686
			c1.185,0,2.15,0.966,2.15,2.152v5.051C100.585,106.4,99.62,107.365,98.435,107.365z M92.747,100.16l-0.004,5.055l5.69,0.004v0.002
			c0.002-0.002,0.004-5.056,0.004-5.056L92.747,100.16z"/>
	</g>
	<g>
		<path fill="#2B2C2C" d="M112.056,107.365h-5.686c-1.185,0-2.15-0.966-2.15-2.152v-5.051c0-1.185,0.964-2.152,2.15-2.152h5.686
			c1.185,0,2.15,0.966,2.15,2.152v5.051C114.205,106.4,113.241,107.365,112.056,107.365z M106.368,100.16l-0.004,5.055l5.69,0.004
			v0.002c0.002-0.002,0.004-5.056,0.004-5.056L106.368,100.16z"/>
	</g>
	<g>
		<path fill="#2B2C2C" d="M112.056,120.874h-19.28c-1.185,0-2.15-0.966-2.15-2.152v-6.264c0-1.185,0.964-2.152,2.15-2.152h19.279
			c1.185,0,2.149,0.966,2.149,2.152v6.264C114.205,119.908,113.241,120.874,112.056,120.874z M92.776,112.456l-0.004,6.267
			l19.283,0.004l0.003-6.267L92.776,112.456z"/>
	</g>
	<g>
		<path fill="#2B2C2C" d="M113.098,127.602h-21.47c-0.684,0-1.238-0.555-1.238-1.238s0.555-1.238,1.238-1.238h21.47
			c0.684,0,1.238,0.555,1.238,1.238S113.781,127.602,113.098,127.602z"/>
	</g>
	<g>
		<path fill="#2B2C2C" d="M113.098,133.746h-21.47c-0.684,0-1.238-0.555-1.238-1.238c0-0.684,0.555-1.238,1.238-1.238h21.47
			c0.684,0,1.238,0.555,1.238,1.238C114.336,133.192,113.781,133.746,113.098,133.746z"/>
	</g>
</g>
<g>
	<path fill="#2B2C2C" d="M29.533,124.373c0.177-0.177,0.275-0.413,0.273-0.662l-0.004-2.108c-0.002-0.498-0.443-0.934-0.938-0.933
		c-0.25,0.002-0.486,0.1-0.661,0.277c-0.177,0.178-0.272,0.413-0.271,0.661l0.002,2.107c0,0.164,0.045,0.324,0.126,0.464
		c0.168,0.29,0.479,0.469,0.811,0.469C29.123,124.649,29.358,124.55,29.533,124.373z"/>
	<path fill="#2B2C2C" d="M35.986,129.232c-0.938-0.938-2.038-1.672-3.268-2.185c-2.458-1.014-5.252-1.014-7.697,0.003
		c-1.229,0.509-2.33,1.244-3.269,2.182c-0.933,0.932-1.665,2.025-2.185,3.269c-0.507,1.222-0.765,2.517-0.765,3.848
		c0,1.062,0.166,2.112,0.496,3.12c0.327,1.007,0.812,1.953,1.442,2.815c1.05,1.438,1.89,2.353,2.505,3.024
		c1.11,1.216,1.526,1.886,1.526,3.545c0,0.518,0.421,1.157,0.939,1.157h6.363c0.517,0,0.938-0.638,0.938-1.157
		c0-1.677,0.415-2.244,1.526-3.473c0.647-0.716,1.452-1.662,2.461-3.041c0.629-0.86,1.113-1.834,1.442-2.84
		c0.327-1.007,0.495-2.072,0.495-3.135C38.934,133.676,37.887,131.133,35.986,129.232z M22.252,141.177
		c-0.509-0.697-0.904-1.467-1.171-2.287c-0.266-0.818-0.401-1.672-0.401-2.541c0-1.084,0.208-2.137,0.63-3.158
		c0.412-0.984,1.008-1.868,1.77-2.63c0.753-0.754,1.625-1.344,2.656-1.787l0.003,0.006c1.98-0.82,4.281-0.822,6.263,0.002
		c0.992,0.409,1.886,1.007,2.657,1.779c1.547,1.548,2.399,3.605,2.399,5.789c0,0.871-0.136,1.727-0.403,2.544
		c-0.267,0.82-0.661,1.589-1.168,2.285c-0.965,1.32-1.777,2.277-2.39,2.955c-1.143,1.265-1.756,1.135-1.922,4.295h-4.568
		c-0.154-1.58-0.737-2.656-1.735-3.751C24.87,144.677,23.214,142.493,22.252,141.177z"/>
	<path fill="#2B2C2C" d="M37.023,123.301c-0.065-0.241-0.221-0.44-0.437-0.563c-0.429-0.249-1.03-0.085-1.277,0.344l-1.055,1.825
		c-0.256,0.449-0.101,1.022,0.344,1.278c0.142,0.081,0.304,0.125,0.468,0.125c0.335,0,0.646-0.181,0.811-0.469l1.055-1.825
		C37.057,123.799,37.089,123.544,37.023,123.301z"/>
	<path fill="#2B2C2C" d="M23.479,124.907l-1.05-1.822c-0.247-0.43-0.841-0.596-1.28-0.347c-0.446,0.259-0.6,0.832-0.344,1.279
		l1.052,1.822c0.166,0.29,0.478,0.471,0.812,0.471c0.164,0,0.326-0.043,0.465-0.125c0.217-0.123,0.372-0.324,0.437-0.565
		C23.637,125.378,23.605,125.126,23.479,124.907z"/>
	<path fill="#2B2C2C" d="M19.035,129.669c-0.064-0.242-0.22-0.445-0.436-0.568l-1.826-1.052c-0.432-0.249-1.031-0.085-1.278,0.344
		c-0.124,0.217-0.157,0.471-0.091,0.711c0.065,0.242,0.221,0.443,0.437,0.566l1.824,1.054c0.142,0.081,0.302,0.123,0.465,0.123
		c0.335,0,0.646-0.179,0.812-0.468C19.067,130.162,19.1,129.91,19.035,129.669z"/>
	<path fill="#2B2C2C" d="M42.24,128.392c-0.247-0.43-0.845-0.594-1.279-0.344l-1.823,1.054c-0.446,0.256-0.602,0.828-0.344,1.279
		c0.166,0.288,0.479,0.468,0.812,0.468c0.163,0,0.324-0.042,0.467-0.123l1.823-1.054C42.343,129.415,42.496,128.84,42.24,128.392z"
		/>
	<path fill="#2B2C2C" d="M29.855,130.635c-0.464,0-0.935,0.047-1.397,0.142c-0.456,0.091-0.908,0.23-1.34,0.413
		c-0.418,0.176-0.82,0.394-1.194,0.647c-0.382,0.256-0.735,0.547-1.048,0.861c-0.317,0.317-0.607,0.669-0.862,1.049
		c-0.253,0.377-0.469,0.777-0.644,1.191c-0.092,0.219-0.093,0.463-0.003,0.684c0.09,0.222,0.26,0.394,0.48,0.486
		c0.11,0.047,0.227,0.07,0.345,0.07c0.361,0,0.686-0.215,0.825-0.547c0.13-0.307,0.292-0.605,0.483-0.886
		c0.186-0.276,0.403-0.539,0.644-0.781c0.248-0.249,0.51-0.464,0.78-0.645c0.285-0.191,0.583-0.353,0.887-0.483
		c0.32-0.136,0.655-0.239,0.995-0.307c0.339-0.068,0.692-0.102,1.049-0.102c0.494,0,0.896-0.403,0.896-0.896
		C30.751,131.037,30.349,130.635,29.855,130.635z"/>
	<path fill="#2B2C2C" d="M25.046,152.768c0.177,0.177,0.413,0.275,0.662,0.273l6.325-0.004c0.498-0.002,0.934-0.443,0.933-0.938
		c-0.002-0.25-0.1-0.486-0.277-0.661c-0.178-0.177-0.413-0.272-0.661-0.271l-6.324,0.002c-0.164,0-0.324,0.045-0.464,0.126
		c-0.29,0.168-0.469,0.479-0.469,0.811C24.771,152.358,24.869,152.593,25.046,152.768z"/>
	<path fill="#2B2C2C" d="M27.332,155.466c0.177,0.177,0.413,0.275,0.662,0.273l1.754-0.004c0.498-0.002,0.934-0.443,0.933-0.938
		c-0.002-0.251-0.1-0.486-0.277-0.661c-0.178-0.177-0.413-0.272-0.662-0.271l-1.754,0.002c-0.164,0-0.324,0.045-0.464,0.126
		c-0.29,0.168-0.469,0.479-0.469,0.811C27.057,155.055,27.155,155.29,27.332,155.466z"/>
</g>
<g>
	<path fill="#2B2C2C" d="M30.197,112.086c-0.1,0-0.202-0.013-0.304-0.038c-0.663-0.167-1.066-0.84-0.897-1.504
		c4.239-16.792,19.873-55.904,73.344-56.403c0.702,0.004,1.244,0.543,1.25,1.227c0.006,0.684-0.543,1.244-1.227,1.25
		C50.617,57.1,35.497,94.914,31.398,111.15C31.255,111.712,30.752,112.086,30.197,112.086z"/>
</g>
<g>
	<path fill="#2B2C2C" d="M147.641,115.477h-7.294c-0.684,0-1.238-0.555-1.238-1.238s0.555-1.238,1.238-1.238h7.294
		c0.684,0,1.238,0.555,1.238,1.238C148.88,114.922,148.325,115.477,147.641,115.477z"/>
</g>
<g opacity="0.1">
	<path fill="#DB5948" d="M154.936,82.305H94.147c-0.912,0-1.652-0.74-1.652-1.652s0.74-1.652,1.652-1.652h60.789
		c0.912,0,1.651,0.74,1.651,1.652C156.587,81.566,155.847,82.305,154.936,82.305z"/>
</g>
<g opacity="0.1">
	<path fill="#DB5948" d="M85.118,82.305H58.579c-0.912,0-1.652-0.74-1.652-1.652s0.74-1.652,1.652-1.652h26.539
		c0.912,0,1.652,0.74,1.652,1.652C86.769,81.566,86.03,82.305,85.118,82.305z"/>
</g>
<g>
	<path fill="#2B2C2C" d="M136.477,115.477h-1.032c-0.684,0-1.238-0.555-1.238-1.238s0.555-1.238,1.238-1.238h1.032
		c0.684,0,1.238,0.555,1.238,1.238S137.16,115.477,136.477,115.477z"/>
</g>
<g>
	<path fill="#2B2C2C" d="M131.832,115.477H130.8c-0.684,0-1.238-0.555-1.238-1.238s0.555-1.238,1.238-1.238h1.032
		c0.684,0,1.238,0.555,1.238,1.238C133.071,114.922,132.516,115.477,131.832,115.477z"/>
</g>
<g>
	<path fill="#2B2C2C" d="M138.799,122.083h-7.122c-0.684,0-1.238-0.555-1.238-1.238c0-0.684,0.555-1.238,1.238-1.238h7.122
		c0.684,0,1.238,0.555,1.238,1.238S139.483,122.083,138.799,122.083z"/>
</g>
<g>
	<path fill="#2B2C2C" d="M143.702,122.083h-1.032c-0.684,0-1.238-0.555-1.238-1.238c0-0.684,0.555-1.238,1.238-1.238h1.032
		c0.684,0,1.238,0.555,1.238,1.238C144.941,121.528,144.385,122.083,143.702,122.083z"/>
</g>
<g>
	<path fill="#2B2C2C" d="M71.67,98.963h-7.294c-0.684,0-1.238-0.555-1.238-1.238s0.555-1.238,1.238-1.238h7.294
		c0.684,0,1.238,0.555,1.238,1.238S72.353,98.963,71.67,98.963z"/>
</g>
<g>
	<path fill="#2B2C2C" d="M60.506,98.963h-1.032c-0.684,0-1.238-0.555-1.238-1.238s0.555-1.238,1.238-1.238h1.032
		c0.684,0,1.238,0.555,1.238,1.238S61.189,98.963,60.506,98.963z"/>
</g>
<g>
	<path fill="#2B2C2C" d="M55.861,98.963h-1.032c-0.684,0-1.238-0.555-1.238-1.238s0.555-1.238,1.238-1.238h1.032
		c0.684,0,1.238,0.555,1.238,1.238S56.544,98.963,55.861,98.963z"/>
</g>
<g>
	<path fill="#2B2C2C" d="M62.828,105.569h-7.122c-0.684,0-1.238-0.555-1.238-1.238s0.555-1.238,1.238-1.238h7.122
		c0.684,0,1.238,0.555,1.238,1.238C64.066,105.013,63.512,105.569,62.828,105.569z"/>
</g>
<g>
	<path fill="#2B2C2C" d="M67.731,105.569h-1.032c-0.684,0-1.238-0.555-1.238-1.238s0.555-1.238,1.238-1.238h1.032
		c0.684,0,1.238,0.555,1.238,1.238C68.969,105.013,68.414,105.569,67.731,105.569z"/>
</g>
<g opacity="0.1">
	<path fill="#DB5948" d="M154.015,72.814H95.153c-1.731,0-3.14-1.409-3.14-3.14V54.83c0-1.732,1.409-3.141,3.14-3.141h58.862
		c1.732,0,3.141,1.409,3.141,3.141v14.844C157.156,71.405,155.748,72.814,154.015,72.814z M96.142,68.686h56.886V55.818H96.142
		V68.686z"/>
</g>
<g opacity="0.1">
	<path fill="#DB5948" d="M83.698,72.814H59.612c-1.732,0-3.141-1.409-3.141-3.14V54.83c0-1.732,1.409-3.141,3.141-3.141h24.085
		c1.732,0,3.141,1.409,3.141,3.141v14.844C86.838,71.405,85.43,72.814,83.698,72.814z M60.599,68.686h22.11V55.818h-22.11V68.686z"
		/>
</g>
</svg>
